<svg width="25" height="25" viewBox="0 0 25 25" fill="none" xmlns="http://www.w3.org/2000/svg">
<rect width="25" height="25" rx="4" fill="#12033B"/>
<rect x="0.25" y="0.25" width="24.5" height="24.5" rx="3.75" stroke="white" stroke-opacity="0.42" stroke-width="0.5"/>
<path d="M9 17.5002H17M9.833 13.5937C9.61981 13.8073 9.50005 14.0968 9.5 14.3987V16.0002H11.1115C11.4135 16.0002 11.703 15.8802 11.9165 15.6662L16.6665 10.9137C16.8796 10.7 16.9993 10.4105 16.9993 10.1087C16.9993 9.80686 16.8796 9.51737 16.6665 9.30367L16.1975 8.83367C16.0917 8.72784 15.9661 8.64391 15.8279 8.58665C15.6897 8.5294 15.5415 8.49995 15.3919 8.5C15.2423 8.50005 15.0941 8.52958 14.9559 8.58692C14.8177 8.64426 14.6922 8.72828 14.5865 8.83417L9.833 13.5937Z" stroke="white" stroke-width="0.75" stroke-linecap="round" stroke-linejoin="round"/>
</svg> 