<svg width="16" height="17" viewBox="0 0 16 17" fill="none" xmlns="http://www.w3.org/2000/svg">
<path d="M9.51696 11.7024H12.7512V8.46818H11.4575V10.4087H9.51696V11.7024ZM3.6954 8.46818H4.98908V6.52766H6.9296V5.23398H3.6954V8.46818ZM3.04856 13.6429C2.6928 13.6429 2.38835 13.5163 2.13522 13.2632C1.88209 13.0101 1.75531 12.7054 1.75488 12.3492V4.58714C1.75488 4.23138 1.88166 3.92693 2.13522 3.6738C2.38879 3.42067 2.69323 3.29389 3.04856 3.29346H13.398C13.7538 3.29346 14.0584 3.42024 14.312 3.6738C14.5656 3.92736 14.6921 4.23181 14.6917 4.58714V12.3492C14.6917 12.705 14.5651 13.0096 14.312 13.2632C14.0589 13.5168 13.7542 13.6433 13.398 13.6429H3.04856ZM3.04856 12.3492H13.398V4.58714H3.04856V12.3492Z" fill="white"/>
</svg>
