<svg width="16" height="16" viewBox="0 0 16 16" fill="none" xmlns="http://www.w3.org/2000/svg">
<path d="M13.7225 4.92803C13.5057 4.55665 13.1929 4.25054 12.8169 4.04186L8.93585 1.90082C8.575 1.70663 8.17162 1.60498 7.76183 1.60498C7.35205 1.60498 6.94867 1.70663 6.58782 1.90082L2.70678 4.04186C2.33079 4.25054 2.01797 4.55665 1.8012 4.92803C1.58127 5.30028 1.46512 5.72467 1.46484 6.15703V10.3033C1.46787 10.7339 1.58424 11.156 1.80226 11.5273C2.02028 11.8987 2.33225 12.206 2.70678 12.4184L6.58782 14.553C6.947 14.7524 7.35103 14.857 7.76183 14.857C8.17263 14.857 8.57666 14.7524 8.93585 14.553L12.8169 12.412C13.1924 12.2029 13.505 11.897 13.7223 11.5262C13.9395 11.1553 14.0535 10.7331 14.0524 10.3033V6.18937C14.0633 5.74626 13.949 5.30905 13.7225 4.92803ZM13.0756 10.3033C13.0782 10.5605 13.011 10.8137 12.8812 11.0358C12.7513 11.2579 12.5637 11.4407 12.3382 11.5646L8.45719 13.7057C8.38905 13.744 8.3179 13.7742 8.24373 13.7962V8.50506L12.9657 5.66543C13.0252 5.82197 13.0536 5.98885 13.0498 6.15703L13.0756 10.3033Z" fill="white"/>
</svg> 