<svg width="24" height="24" viewBox="0 0 24 24" fill="none" xmlns="http://www.w3.org/2000/svg">
<path d="M21.2195 6.8942C20.8844 6.32005 20.4008 5.8468 19.8195 5.5242L13.8195 2.2142C13.2617 1.91398 12.638 1.75684 12.0045 1.75684C11.371 1.75684 10.7474 1.91398 10.1895 2.2142L4.18953 5.5242C3.60826 5.8468 3.12465 6.32005 2.78953 6.8942C2.44953 7.46969 2.26996 8.12578 2.26953 8.7942V15.2042C2.2742 15.8699 2.45412 16.5225 2.79117 17.0966C3.12822 17.6706 3.61052 18.1458 4.18953 18.4742L10.1895 21.7742C10.7448 22.0824 11.3694 22.2441 12.0045 22.2441C12.6396 22.2441 13.2642 22.0824 13.8195 21.7742L19.8195 18.4642C20.4 18.1409 20.8833 17.668 21.2192 17.0947C21.5551 16.5214 21.7313 15.8686 21.7295 15.2042V8.8442C21.7465 8.15915 21.5697 7.48324 21.2195 6.8942ZM20.2195 15.2042C20.2235 15.6019 20.1196 15.9933 19.9189 16.3367C19.7182 16.68 19.4281 16.9626 19.0795 17.1542L13.0795 20.4642C12.9742 20.5235 12.8642 20.5702 12.7495 20.6042V12.4242L20.0495 8.0342C20.1415 8.2762 20.1855 8.5342 20.1795 8.7942L20.2195 15.2042Z" fill="#4526B1"/>
</svg>
